<?xml version="1.0" encoding="UTF-8"?>
<svg id="Ebene_1" xmlns="http://www.w3.org/2000/svg" viewBox="0 0 300.55 250.6">
  <defs>
    <style>
      .cls-1 {
        fill: #010101;
      }
    </style>
  </defs>
  <path class="cls-1" d="M139.62,211.36l-59.02-78.34-21.67-30.55h-2.66s0,53.32,0,53.32c0,8.29.59,14.56,1.77,18.8,1.19,4.25,3.86,7.16,8,8.74,4.15,1.58,10.56,2.37,19.25,2.37v8.88H0v-8.88c9.07,0,15.64-.69,19.69-2.07,4.05-1.39,6.66-4.19,7.85-8.45,1.18-4.24,1.78-10.7,1.78-19.39V39.1c0-7.7-.49-13.78-1.48-18.22-.99-4.44-3.51-7.56-7.56-9.33S9.47,8.88,0,8.88V0h85.29v8.88c-9.28,0-15.99.89-20.14,2.66s-6.66,4.89-7.54,9.33c-.89,4.45-1.34,10.52-1.34,18.22v55.68h1.48l47.98-46.8c6.92-6.52,12.15-12.04,15.7-16.58,3.56-4.54,5.33-8.99,5.33-13.33,0-3.16-.84-5.48-2.52-6.97-1.68-1.48-4.59-2.22-8.74-2.22h-4.74V0h72.56v8.88c-5.53.19-10.22.99-14.06,2.36-3.86,1.39-7.6,3.52-11.26,6.38-3.65,2.87-8.15,6.76-13.47,11.7l-64.27,60.13,59.36,121.92Z"/>
  <path class="cls-1" d="M94.22,93.45l86.36,111.54h1.19l62.2-148.97h56.27v8.88c-6.92,0-12.24.74-15.99,2.22-3.76,1.48-6.33,4.15-7.7,8-1.39,3.84-2.07,9.42-2.07,16.73v123.51c0,7.11.69,12.59,2.07,16.44,1.37,3.86,3.94,6.47,7.7,7.86,3.75,1.39,9.18,2.07,16.29,2.07v8.88h-78.79v-8.88c7.7,0,13.43-.69,17.19-2.07,3.75-1.39,6.22-4,7.4-7.86,1.18-3.84,1.78-9.33,1.78-16.44v-127.65h-1.19l-69.01,162.9h-7.11L94.22,93.45Z"/>
</svg>